<?xml version="1.0" standalone="no"?><!DOCTYPE svg PUBLIC "-//W3C//DTD SVG 1.1//EN" "http://www.w3.org/Graphics/SVG/1.1/DTD/svg11.dtd" [<!ENTITY nbsp " ">]><svg data-noselect="" viewBox="133.78050994873 46 478 478" width="478" ref="svg_canvas" height="478" preserveAspectRatio="none" version="1.1" xmlns="http://www.w3.org/2000/svg" style="background: #ffffff;"><g id="shape_cdwZUZPSj9" ref="shape_cdwZUZPSj9" key="shape_cdwZUZPSj9" transform="translate(213.78050994873,126) rotate(0,159,159) scale(1,1)" style="cursor:move;display:inline;opacity:1;" filter="">
            <g style="display:inline"><rect fill="rgba(0,0,0,0)" width="338" height="338" x="-10" y="-10"></rect><svg version="1.1" id="图层_1" xmlns="http://www.w3.org/2000/svg" xmlns:xlink="http://www.w3.org/1999/xlink" x="0px" y="0px" viewBox="0 0 283.465 283.465" style="enable-background:new 0 0 283.465 283.465;" xml:space="preserve" width="318" height="318" preserveAspectRatio="none" data-parent="shape_cdwZUZPSj9">
<circle style="" cx="141.732" cy="141.732" r="138.75" fill="none" stroke="#3E3A39" stroke-width="3.5" stroke-miterlimit="10"></circle>
</svg></g>
        </g><g id="shape_lDrbNVdMo4" ref="shape_lDrbNVdMo4" key="shape_lDrbNVdMo4" transform="translate(276.15007400513,368.42001342773) rotate(0,51.5,21.365373150125) scale(1,1)" style="cursor:move;display:inline;opacity:1;" filter="">
            <g style="display:inline"><rect fill="rgba(0,0,0,0)" width="123" height="62.730746300249" x="-10" y="-10"></rect><svg version="1.1" id="图层_1" xmlns="http://www.w3.org/2000/svg" xmlns:xlink="http://www.w3.org/1999/xlink" x="0px" y="0px" viewBox="0 0 283.465 98.477" style="enable-background:new 0 0 283.465 98.477;" xml:space="preserve" width="103" height="42.730746300249" preserveAspectRatio="none" data-parent="shape_lDrbNVdMo4">
<path d="M282,60.828c0-7.475-6.447-13.558-14.37-13.558L15.835,47.106c-5.433,0-9.851-4.161-9.851-9.283
	c0-5.131,4.418-9.293,9.851-9.293l184.102-0.136c7.927,0,14.377-6.08,14.377-13.552c0-7.469-6.45-13.556-14.377-13.556H77.321v4.268
	h93.394c5.438,0,9.861,4.169,9.861,9.288c0,5.116-4.423,9.289-9.861,9.289l-154.88,0.136c-7.93,0-14.371,6.082-14.371,13.556
	c0,7.466,6.441,13.548,14.371,13.548l231.966,0.166c5.438,0,9.847,4.165,9.847,9.292c0,5.117-4.408,9.292-9.847,9.292L95.042,70.088
	c-7.923,0-14.373,6.078-14.373,13.556c0,7.466,6.45,13.548,14.373,13.548h99.798v-4.259H95.042c-5.43,0-9.853-4.171-9.853-9.288
	c0-5.127,4.423-9.292,9.853-9.292l172.587,0.033C275.553,74.385,282,68.295,282,60.828z M199.937,24.13H181.13
	c2.442-2.433,3.967-5.688,3.967-9.289s-1.525-6.856-3.967-9.288h18.807c5.436,0,9.853,4.169,9.853,9.288
	C209.79,19.958,205.373,24.13,199.937,24.13z M277.485,60.828c0,5.117-4.426,9.292-9.855,9.292h-9.42
	c2.44-2.431,3.965-5.691,3.965-9.292c0-3.606-1.525-6.861-3.965-9.292h9.42C273.059,51.537,277.485,55.702,277.485,60.828z"></path>
</svg></g>
        </g><g id="shape_WnZpBBiN8m" ref="shape_WnZpBBiN8m" key="shape_WnZpBBiN8m" transform="translate(216.28057479858,78.32818222046001) rotate(0,183,192.63187499999998) scale(1,1)" style="cursor:move;display:inline;opacity:1;" filter="">
            <g style="display:inline"><svg xmlns="http://www.w3.org/2000/svg" version="1.1" xmlns:xlink="http://www.w3.org/1999/xlink" width="356" height="350.34375" viewBox="0 0 356 350.34375" preserveAspectRatio="none" data-parent="shape_WnZpBBiN8m"><rect fill="rgba(0,0,0,0)" width="180" height="160" x="88" y="95.171875"></rect><g data-width="180" transform="translate(88, 0)"><path d="M16.50-66.52L19.77-66.52Q23.03-66.52 23.03-66.17L23.03-66.17Q23.20-65.48 24.06-63.94L24.06-63.94Q24.75-62.39 25.78-61.10Q26.81-59.81 27.50-59.13L27.50-59.13L28.53-58.44L28.02-57.41Q27.50-56.55 27.24-56.55Q26.98-56.55 25.78-57.06L25.78-57.06Q24.41-57.58 23.20-58.44L23.20-58.44Q21.83-59.30 20.45-60.67L20.45-60.67Q19.08-62.05 18.22-63.25L18.22-63.25Q17.53-64.45 17.02-65.48L17.02-65.48L16.50-66.52ZM71.67-65.48L71.67-65.48L75.45-65.48L75.45-35.06Q75.45-4.64 75.11-3.27L75.11-3.27Q74.94-1.72 74.42-0.52L74.42-0.52Q73.91 0.69 72.88 1.55L72.88 1.55Q72.02 2.41 71.33 2.75L71.33 2.75Q70.64 3.09 69.27 3.09L69.27 3.09L67.89 3.09L67.89-29.39L67.89-61.88L50.88-61.88L34.03-61.88L34.03-63.42L34.03-64.97L50.88-64.97Q67.89-64.97 67.89-65.23Q67.89-65.48 71.67-65.48ZM12.72-56.03L16.50-56.03L20.11-56.03L20.11-29.05Q20.11-1.89 19.85-0.69Q19.59 0.52 19.08 1.46Q18.56 2.41 17.88 3.27L17.88 3.27Q17.19 3.95 16.24 4.38Q15.30 4.81 14.09 4.81L14.09 4.81L12.72 4.81L12.72-25.61L12.72-56.03ZM31.28-55.52L31.28-55.52Q31.97-55.17 32.66-55L32.66-55Q33.69-54.48 34.89-53.80L34.89-53.80Q35.92-53.11 37.13-52.08L37.13-52.08Q38.16-51.22 39.36-49.84L39.36-49.84Q40.39-48.64 41.42-46.92L41.42-46.92Q41.77-46.41 42.02-45.98Q42.28-45.55 42.37-45.29Q42.45-45.03 42.45-45.03L42.45-45.03Q42.28-45.03 39.36-44.69L39.36-44.69Q36.44-44.34 36.27-44.52L36.27-44.52Q36.09-44.69 35.49-46.58Q34.89-48.47 34.03-50.19L34.03-50.19Q33.17-51.91 32.31-52.94L32.31-52.94Q31.63-53.97 30.94-54.31L30.94-54.31Q30.59-54.48 30.42-54.57Q30.25-54.66 30.34-54.83Q30.42-55 30.59-55.34L30.59-55.34Q30.77-55.52 31.28-55.52ZM54.31-55.52L54.31-55.52Q56.89-55.52 56.89-55.34Q56.89-55.17 56.20-53.97L56.20-53.97Q56.20-53.97 55.60-52.68Q55-51.39 54.66-50.70L54.66-50.70Q53.80-48.64 52.51-47.61Q51.22-46.58 49.84-45.89Q48.47-45.20 47.27-44.86L47.27-44.86Q46.06-44.34 45.20-44.34L45.20-44.34L44.17-44.34L45.38-45.72Q46.58-46.75 47.44-47.95L47.44-47.95Q48.13-48.81 49.50-52.08L49.50-52.08Q51.05-55.34 51.39-55.34L51.39-55.34Q51.91-55.52 54.31-55.52ZM26.81-43.48Q26.81-43.66 30.08-43.66Q33.34-43.66 33.34-43.23Q33.34-42.80 43.91-42.80Q54.48-42.80 54.48-43.23Q54.48-43.66 57.75-43.66L57.75-43.66L61.02-43.66L61.02-33.86Q61.02-24.23 60.84-24.23L60.84-24.23Q60.67-24.23 59.47-24.58L59.47-24.58Q58.27-24.75 57.23-25.35Q56.20-25.95 54.83-25.95L54.83-25.95Q53.97-25.95 53.11-25.95L53.11-25.95Q52.94-25.95 52.94-17.70L52.94-17.70L52.94-9.45L56.38-9.45L59.81-9.45L59.81-12.03Q59.81-14.61 60.16-15.47Q60.50-16.33 61.36-17.02L61.36-17.02Q62.05-17.53 63.25-18.05L63.25-18.05Q64.28-18.56 65.31-18.91L65.31-18.91Q66.34-19.08 66.43-18.82Q66.52-18.56 66.34-12.03L66.34-12.03L66.34-5.50L59.64-5.50L52.94-5.33L52.94-4.64Q52.94-4.13 52.85-4.04Q52.77-3.95 52.25-4.13L52.25-4.13Q51.73-4.30 50.53-4.64L50.53-4.64Q49.50-4.98 48.47-6.02Q47.44-7.05 47.01-8.25Q46.58-9.45 46.41-17.70L46.41-17.70L46.41-25.95L44.17-25.95L41.77-25.95Q41.59-25.95 41.51-23.03Q41.42-20.11 40.91-18.39L40.91-18.39Q40.39-16.67 39.36-14.52Q38.33-12.38 37.47-11L37.47-11Q36.44-9.80 35.06-8.25L35.06-8.25Q33.69-6.70 32.31-5.84L32.31-5.84Q30.94-4.98 29.73-4.30L29.73-4.30Q28.53-3.61 26.98-3.09L26.98-3.09Q25.44-2.58 24.06-2.41L24.06-2.41Q22.69-2.06 22.09-2.06Q21.48-2.06 21.14-2.58L21.14-2.58Q20.80-2.92 20.80-3.18Q20.80-3.44 21.83-3.95L21.83-3.95Q23.03-4.64 24.23-5.50L24.23-5.50Q25.78-6.36 27.67-8.42L27.67-8.42Q29.73-10.48 30.77-11.86L30.77-11.86Q31.63-13.23 32.48-14.95Q33.34-16.67 33.86-18.22L33.86-18.22Q34.55-20.11 34.72-21.48L34.72-21.48Q35.06-23.03 35.06-24.41L35.06-24.41Q35.06-25.95 34.89-25.95L34.89-25.95Q34.72-26.13 34.03-26.13L34.03-26.13Q33.34-26.13 33.34-25.18Q33.34-24.23 33.09-24.23Q32.83-24.23 31.45-24.58L31.45-24.58Q30.25-24.92 29.22-25.61L29.22-25.61Q28.19-26.13 27.67-26.81Q27.16-27.50 26.98-28.36L26.98-28.36Q26.64-29.39 26.64-36.35Q26.64-43.31 26.81-43.48L26.81-43.48ZM54.48-39.53L43.83-39.53L33.34-39.53L33.34-34.38L33.34-29.22L43.83-29.22L54.48-29.22L54.48-34.38L54.48-39.53Z" transform="translate(0 165.171875) " fill="#000000" stroke="#000000" stroke-linecap="square" stroke-linejoin="square" stroke-width="0.147" data-glyph-w="90" data-glyph-h="93.671875" data-glyph-ascender="77.171875" data-glyph-descender="-16.5"></path><path d="M43.48-62.91L43.48-62.91L47.09-62.91L47.27-62.22L47.27-61.70L57.23-61.70L67.20-61.70L67.20-62.39L67.20-63.08L70.81-63.08L74.42-63.08L74.42-46.58Q74.42-30.08 73.99-28.88Q73.56-27.67 73.05-26.47L73.05-26.47Q72.36-25.09 71.50-24.06L71.50-24.06Q70.47-23.20 69.44-22.52L69.44-22.52Q68.41-22 67.72-22L67.72-22L67.20-21.83L67.20-39.53L67.20-57.23L57.23-57.23L47.27-57.41L47.27-44.69Q47.27-32.14 47.01-30.51Q46.75-28.88 46.32-27.67Q45.89-26.47 45.29-25.52Q44.69-24.58 43.74-23.80Q42.80-23.03 41.85-22.52Q40.91-22 40.39-22L40.39-22L39.88-22L39.88-42.28Q39.88-62.56 39.88-62.82Q39.88-63.08 43.48-62.91ZM12.20-61.88L24.06-61.88L35.92-61.88L35.75-42.28Q35.75-22.69 35.41-21.31L35.41-21.31Q35.06-19.94 34.72-18.56L34.72-18.56Q34.20-17.36 33.52-15.81L33.52-15.81Q32.66-14.27 31.45-12.63Q30.25-11 29.22-10.05Q28.19-9.11 27.33-8.42L27.33-8.42L26.64-7.73L27.84-6.36Q29.22-5.16 30.42-4.13L30.42-4.13Q31.80-3.27 32.05-3.27Q32.31-3.27 34.03-4.13L34.03-4.13Q35.92-4.98 37.64-6.19L37.64-6.19Q39.53-7.56 41.42-9.28L41.42-9.28Q43.48-11.34 44.69-12.89L44.69-12.89Q45.72-14.27 46.75-16.16L46.75-16.16Q47.78-17.70 48.64-19.94L48.64-19.94Q49.33-22 49.93-24.15Q50.53-26.30 50.53-26.30L50.53-26.30Q50.53-26.30 52.77-26.13L52.77-26.13Q55-25.78 55.34-25.78L55.34-25.78L55.86-25.78L55.86-37.13L55.86-48.47L59.64-48.47L63.42-48.47L63.42-26.64L63.42-4.81L68.92-4.81L74.25-4.81L74.25-8.77L74.25-12.72L78.03-12.72L81.98-12.72L81.98-9.28Q81.98-6.19 81.64-4.64L81.64-4.64Q81.30-3.27 80.87-2.32Q80.44-1.38 79.58-0.52L79.58-0.52Q78.89 0.34 77.69 0.86L77.69 0.86Q76.66 1.20 75.45 1.20L75.45 1.20L74.25 1.20L74.25-0.17L74.25-1.55L68.92-1.55L63.42-1.55L63.42-0.17L63.42 1.20L62.22 1.20Q61.02 1.20 60.16 0.86Q59.30 0.52 58.61 0L58.61 0Q58.09-0.34 57.41-1.38L57.41-1.38Q56.89-2.23 56.46-3.35Q56.03-4.47 55.86-10.31L55.86-10.31L55.69-15.98L55-14.61Q54.14-13.06 52.77-11.52Q51.39-9.97 49.84-8.77L49.84-8.77Q48.47-7.56 47.09-6.53L47.09-6.53Q45.72-5.67 43.31-4.47L43.31-4.47Q41.08-3.27 38.50-2.41Q35.92-1.55 35.92-1.46Q35.92-1.38 36.52-1.12Q37.13-0.86 37.13 0L37.13 0L37.13 1.03L36.44 1.03Q35.92 0.86 33.52 0.17L33.52 0.17Q31.45-0.52 29.82-0.26Q28.19 0 28.10-0.09Q28.02-0.17 28.02-1.03Q28.02-1.89 26.98-2.58L26.98-2.58Q25.78-3.09 24.23-3.95L24.23-3.95Q22.69-4.98 22.52-4.98L22.52-4.98Q22.34-4.98 20.11-3.95L20.11-3.95Q17.88-2.92 14.95-2.06L14.95-2.06Q12.20-1.03 9.80-0.69L9.80-0.69Q7.22-0.17 6.70-0.09Q6.19 0 6.10-0.09Q6.02-0.17 6.02-0.86L6.02-0.86Q5.84-1.55 6.02-1.72L6.02-1.72Q6.19-1.89 7.91-2.58L7.91-2.58Q9.63-3.09 11.52-3.95Q13.41-4.81 14.78-5.67L14.78-5.67Q15.98-6.53 17.36-7.56L17.36-7.56L18.56-8.59L18.05-9.11Q17.88-9.63 16.67-11.17L16.67-11.17Q15.64-12.55 14.78-14.27L14.78-14.27Q13.92-15.98 13.41-17.36L13.41-17.36Q13.06-18.56 12.55-20.45L12.55-20.45Q12.20-21.83 12.20-41.77L12.20-41.77L12.20-61.88ZM28.19-58.44L24.06-58.44Q19.77-58.44 19.77-58.44L19.77-58.44Q19.59-58.27 19.59-42.80L19.59-42.80Q19.59-27.50 19.77-24.92L19.77-24.92Q19.94-22.52 20.45-20.63L20.45-20.63Q20.80-18.91 21.48-16.84L21.48-16.84Q22-14.95 22.52-14.27L22.52-14.27L22.86-13.41L23.72-14.61Q24.58-15.98 25.52-17.88Q26.47-19.77 27.16-21.83L27.16-21.83Q27.84-24.06 28.02-25.44L28.02-25.44Q28.19-26.98 28.19-42.63L28.19-42.63L28.19-58.44Z" transform="translate(90 165.171875) " fill="#000000" stroke="#000000" stroke-linecap="square" stroke-linejoin="square" stroke-width="0.147" data-glyph-w="90" data-glyph-h="93.671875" data-glyph-ascender="77.171875" data-glyph-descender="-16.5"></path></g><g data-width="180" transform="translate(88, 0)"><path d="M18.39-66.69L22.17-66.69L25.78-66.69L25.78-57.06L25.95-47.44L31.45-47.61L37.13-47.61L37.30-57.06L37.30-66.69L40.91-66.69L44.34-66.69L44.52-57.06L44.52-47.44L52.42-47.44L60.33-47.44L60.33-57.06L60.50-66.69L63.94-66.69L67.55-66.69L67.55-57.06L67.72-47.61L73.73-47.61L79.58-47.44L79.58-45.89L79.58-44.17L73.56-44.17L67.72-44.17L67.55-32.31Q67.55-20.28 67.03-19.25L67.03-19.25Q66.69-18.22 66-17.36L66-17.36Q65.48-16.33 64.45-15.73Q63.42-15.13 61.88-14.95L61.88-14.95L60.33-14.95L60.33-17.19L60.33-19.25L52.42-19.25L44.52-19.25L44.52-17.19L44.52-14.95L43.14-14.95Q41.77-14.95 40.73-15.47Q39.70-15.98 39.19-16.67L39.19-16.67Q38.50-17.36 38.16-18.22L38.16-18.22Q37.81-19.08 37.55-20.02Q37.30-20.97 37.30-32.66L37.30-32.66L37.30-44.17L31.63-44.17L25.95-44.17L25.95-25.09L25.95-6.02L52.08-6.02L78.20-6.02L78.20-4.13L78.20-2.23L52.08-2.23L25.95-2.23L25.95 1.20Q25.95 4.81 25.61 4.81Q25.27 4.81 23.63 4.04Q22 3.27 21.14 2.41L21.14 2.41Q20.45 1.72 19.77 0.69L19.77 0.69Q19.25-0.17 18.73-1.38L18.73-1.38Q18.39-2.75 18.39-23.38L18.39-23.38L18.39-44.17L13.41-44.17L8.25-44.17L8.25-45.89L8.25-47.44L13.23-47.61L18.39-47.61L18.39-57.23L18.39-66.69ZM60.33-44.17L52.42-44.17L44.52-44.17L44.52-33.34L44.52-22.69L52.42-22.69L60.33-22.69L60.33-33.34L60.33-44.17Z" transform="translate(0 245.171875) " fill="#000000" stroke="#000000" stroke-linecap="square" stroke-linejoin="square" stroke-width="0.147" data-glyph-w="90" data-glyph-h="93.671875" data-glyph-ascender="77.171875" data-glyph-descender="-16.5"></path><path d="M20.20-65.05Q20.45-65.14 23.98-65.14Q27.50-65.14 27.67-64.63L27.67-64.63L27.67-64.11L44.17-64.11L60.67-64.11L60.84-64.63Q60.84-65.14 64.63-65.14L64.63-65.14L68.23-65.14L68.41-51.05Q68.41-37.13 68.23-35.75L68.23-35.75Q68.06-34.55 67.38-33.34L67.38-33.34Q66.86-32.14 66.17-31.28L66.17-31.28Q65.31-30.59 64.28-30.08L64.28-30.08Q63.42-29.56 62.05-29.56L62.05-29.56L60.84-29.56L60.84-30.94L60.67-32.48L56.55-32.48L52.25-32.48L51.39-31.80Q51.05-31.63 50.88-31.37Q50.70-31.11 50.70-31.11L50.70-31.11Q50.88-30.94 53.97-28.36Q57.06-25.78 58.27-24.92L58.27-24.92Q59.47-24.06 62.05-22.69L62.05-22.69Q64.63-21.31 66.69-20.63L66.69-20.63Q68.23-19.94 71.84-18.73L71.84-18.73Q75.28-17.53 75.97-17.36L75.97-17.36Q76.66-17.36 76.66-17.19L76.66-17.19Q76.66-17.02 76.31-16.41Q75.97-15.81 74.94-15.81L74.94-15.81Q73.91-15.81 71.67-15.98L71.67-15.98Q69.09-16.50 67.03-16.84L67.03-16.84Q64.80-17.36 61.88-18.22L61.88-18.22L59.13-19.25L59.30-11.52Q59.30-3.95 59.13-2.75L59.13-2.75Q58.78-1.55 58.44-0.52L58.44-0.52Q57.92 0.34 57.06 1.38L57.06 1.38Q56.03 2.23 55 2.58L55 2.58Q53.80 3.09 52.77 2.92L52.77 2.92L51.91 2.92L51.73-8.08Q51.56-12.89 51.56-21.31L51.56-21.31L51.39-23.55L49.33-25.09Q47.95-25.95 46.41-26.98L46.41-26.98L45.72-27.50L42.97-25.44Q39.88-23.38 39.53-23.20L39.53-23.20L38.84-22.86L38.67-20.63Q38.67-18.56 38.16-16.50L38.16-16.50Q37.81-14.44 37.30-12.72L37.30-12.72Q36.61-10.83 35.58-9.11L35.58-9.11Q34.55-7.05 33.34-5.50L33.34-5.50Q32.31-4.13 30.42-2.23L30.42-2.23Q28.70-0.52 27.16 0.52L27.16 0.52Q25.78 1.55 23.72 2.58L23.72 2.58L21.83 3.44L21.83 2.06Q21.66 0.52 22.17 0.34L22.17 0.34Q22.52 0.17 24.06-1.03L24.06-1.03Q25.61-2.23 26.64-3.61L26.64-3.61Q27.67-4.98 28.36-6.19L28.36-6.19Q29.22-7.56 29.73-8.94L29.73-8.94Q30.42-10.66 30.77-12.20L30.77-12.20Q31.11-13.92 31.28-16.93Q31.45-19.94 31.20-19.94Q30.94-19.94 28.02-19.08L28.02-19.08Q24.75-18.05 20.97-17.19L20.97-17.19Q17.53-16.50 15.13-15.98L15.13-15.98L13.23-15.64L12.20-16.33Q11.17-16.84 11.26-16.93Q11.34-17.02 12.55-17.36L12.55-17.36Q13.92-17.70 16.50-18.56L16.50-18.56Q18.91-19.42 22.17-20.63L22.17-20.63Q24.75-21.83 26.47-22.69L26.47-22.69Q28.02-23.55 30.25-25.09L30.25-25.09Q32.31-26.47 33.52-27.33L33.52-27.33Q33.69-27.50 34.89-28.53Q36.09-29.56 36.95-30.25L36.95-30.25L39.36-32.31L32.83-32.31L26.30-32.48L25.09-31.28Q24.06-30.08 23.03-29.91L23.03-29.91Q22.17-29.56 21.31-29.56L21.31-29.56Q20.63-29.56 20.28-29.56L20.28-29.56Q19.94-29.73 19.94-47.35Q19.94-64.97 20.20-65.05ZM40.39-60.84L34.03-60.84L27.67-60.84L27.67-55.52L27.67-50.02L34.03-50.02L40.39-50.02L40.39-55.52L40.39-60.84ZM60.67-60.84L54.31-60.84L47.95-60.84L47.95-55.52L47.95-50.02L54.31-50.02L60.67-50.02L60.67-55.52L60.67-60.84ZM40.39-46.75L34.03-46.75L27.67-46.75L27.67-41.42Q27.50-36.09 27.59-35.92Q27.67-35.75 34.03-35.75L34.03-35.75L40.39-35.75L40.39-41.25L40.39-46.75ZM60.67-46.75L54.31-46.75L47.95-46.75L47.95-43.31Q47.95-40.05 47.78-38.67L47.78-38.67Q47.44-37.30 47.09-36.78L47.09-36.78Q46.92-36.27 46.92-36.01Q46.92-35.75 53.80-35.75L53.80-35.75L60.67-35.75L60.67-41.25L60.67-46.75Z" transform="translate(90 245.171875) " fill="#000000" stroke="#000000" stroke-linecap="square" stroke-linejoin="square" stroke-width="0.147" data-glyph-w="90" data-glyph-h="93.671875" data-glyph-ascender="77.171875" data-glyph-descender="-16.5"></path></g></svg></g>
        </g></svg>