<?xml version="1.0" standalone="no"?><!DOCTYPE svg PUBLIC "-//W3C//DTD SVG 1.1//EN" "http://www.w3.org/Graphics/SVG/1.1/DTD/svg11.dtd"><svg class="icon" width="25px" height="25.00px" viewBox="0 0 1024 1024" version="1.1" xmlns="http://www.w3.org/2000/svg"><path d="M512.3 852.3c-213.4 0-386.9-173.6-386.9-386.9s173.5-387 386.9-387 386.9 173.6 386.9 387-173.5 386.9-386.9 386.9z m0-717.8c-182.4 0-330.9 148.5-330.9 330.9s148.5 330.9 330.9 330.9 330.9-148.5 330.9-330.9-148.5-330.9-330.9-330.9z" fill="#2c2c2c" /><path d="M933.2 860.4c-10.1 11.6-27.9 12.9-39.5 2.8L749 737.8c-11.6-10.1-12.9-27.9-2.8-39.5 10.1-11.6 27.9-12.9 39.5-2.8l144.7 125.4c11.6 10 12.9 27.8 2.8 39.5z" fill="#2c2c2c" /></svg>